<mxfile host="app.diagrams.net" agent="Mozilla/5.0 (Windows NT 10.0; Win64; x64) AppleWebKit/537.36 (KHTML, like Gecko) Chrome/130.0.0.0 Safari/537.36" version="24.8.0">
  <diagram name="Page-1" id="fRENjOU79ll2bTRFL-tn">
    <mxGraphModel dx="2919" dy="928" grid="1" gridSize="10" guides="1" tooltips="1" connect="1" arrows="1" fold="1" page="1" pageScale="1" pageWidth="1169" pageHeight="827" math="0" shadow="0">
      <root>
        <mxCell id="0" />
        <mxCell id="1" parent="0" />
        <mxCell id="rUiSAQAoIF4Tqrk9Y4Ku-16" style="edgeStyle=orthogonalEdgeStyle;rounded=0;orthogonalLoop=1;jettySize=auto;html=1;exitX=0;exitY=0.5;exitDx=0;exitDy=0;entryX=1;entryY=0.75;entryDx=0;entryDy=0;" parent="1" source="rUiSAQAoIF4Tqrk9Y4Ku-3" target="rUiSAQAoIF4Tqrk9Y4Ku-14" edge="1">
          <mxGeometry relative="1" as="geometry" />
        </mxCell>
        <mxCell id="rUiSAQAoIF4Tqrk9Y4Ku-18" style="edgeStyle=orthogonalEdgeStyle;rounded=0;orthogonalLoop=1;jettySize=auto;html=1;exitX=1;exitY=0.5;exitDx=0;exitDy=0;entryX=0;entryY=0.5;entryDx=0;entryDy=0;" parent="1" source="rUiSAQAoIF4Tqrk9Y4Ku-3" target="rUiSAQAoIF4Tqrk9Y4Ku-11" edge="1">
          <mxGeometry relative="1" as="geometry" />
        </mxCell>
        <mxCell id="rUiSAQAoIF4Tqrk9Y4Ku-28" style="edgeStyle=orthogonalEdgeStyle;rounded=0;orthogonalLoop=1;jettySize=auto;html=1;exitX=0;exitY=0.75;exitDx=0;exitDy=0;entryX=1;entryY=0.5;entryDx=0;entryDy=0;" parent="1" source="rUiSAQAoIF4Tqrk9Y4Ku-3" target="rUiSAQAoIF4Tqrk9Y4Ku-26" edge="1">
          <mxGeometry relative="1" as="geometry" />
        </mxCell>
        <mxCell id="rUiSAQAoIF4Tqrk9Y4Ku-31" style="edgeStyle=orthogonalEdgeStyle;rounded=0;orthogonalLoop=1;jettySize=auto;html=1;exitX=1;exitY=0.75;exitDx=0;exitDy=0;entryX=0;entryY=0.5;entryDx=0;entryDy=0;" parent="1" source="rUiSAQAoIF4Tqrk9Y4Ku-3" target="rUiSAQAoIF4Tqrk9Y4Ku-29" edge="1">
          <mxGeometry relative="1" as="geometry" />
        </mxCell>
        <mxCell id="rUiSAQAoIF4Tqrk9Y4Ku-3" value="Fact Table&lt;div&gt;&lt;br&gt;&lt;/div&gt;" style="swimlane;whiteSpace=wrap;html=1;startSize=40;" parent="1" vertex="1">
          <mxGeometry x="-370" y="160" width="110" height="155" as="geometry">
            <mxRectangle x="360" y="160" width="140" height="30" as="alternateBounds" />
          </mxGeometry>
        </mxCell>
        <mxCell id="rUiSAQAoIF4Tqrk9Y4Ku-4" value="Revenue&lt;div&gt;Dealer_ID&lt;/div&gt;&lt;div&gt;Model_ID&lt;/div&gt;&lt;div&gt;Branch_iD&lt;/div&gt;&lt;div&gt;Date_ID&lt;/div&gt;&lt;div&gt;Units_Sold&lt;/div&gt;&lt;div&gt;&lt;br&gt;&lt;/div&gt;" style="text;html=1;align=center;verticalAlign=middle;resizable=0;points=[];autosize=1;strokeColor=none;fillColor=none;" parent="rUiSAQAoIF4Tqrk9Y4Ku-3" vertex="1">
          <mxGeometry x="10" y="45" width="80" height="110" as="geometry" />
        </mxCell>
        <mxCell id="rUiSAQAoIF4Tqrk9Y4Ku-11" value="Dimension Table" style="swimlane;whiteSpace=wrap;html=1;startSize=23;" parent="1" vertex="1">
          <mxGeometry x="-140" y="40" width="100" height="120" as="geometry" />
        </mxCell>
        <mxCell id="rUiSAQAoIF4Tqrk9Y4Ku-12" value="Date_ID&lt;div&gt;year&lt;/div&gt;&lt;div&gt;month&lt;/div&gt;&lt;div&gt;quarter&lt;/div&gt;&lt;div&gt;date&lt;/div&gt;" style="text;html=1;align=center;verticalAlign=middle;resizable=0;points=[];autosize=1;strokeColor=none;fillColor=none;" parent="rUiSAQAoIF4Tqrk9Y4Ku-11" vertex="1">
          <mxGeometry x="15" y="30" width="70" height="90" as="geometry" />
        </mxCell>
        <mxCell id="rUiSAQAoIF4Tqrk9Y4Ku-24" style="edgeStyle=orthogonalEdgeStyle;rounded=0;orthogonalLoop=1;jettySize=auto;html=1;exitX=0;exitY=0.5;exitDx=0;exitDy=0;entryX=1;entryY=0.5;entryDx=0;entryDy=0;" parent="1" source="rUiSAQAoIF4Tqrk9Y4Ku-14" target="rUiSAQAoIF4Tqrk9Y4Ku-19" edge="1">
          <mxGeometry relative="1" as="geometry" />
        </mxCell>
        <mxCell id="rUiSAQAoIF4Tqrk9Y4Ku-25" style="edgeStyle=orthogonalEdgeStyle;rounded=0;orthogonalLoop=1;jettySize=auto;html=1;exitX=0;exitY=0.75;exitDx=0;exitDy=0;entryX=1;entryY=0.75;entryDx=0;entryDy=0;" parent="1" source="rUiSAQAoIF4Tqrk9Y4Ku-14" target="rUiSAQAoIF4Tqrk9Y4Ku-22" edge="1">
          <mxGeometry relative="1" as="geometry" />
        </mxCell>
        <mxCell id="rUiSAQAoIF4Tqrk9Y4Ku-14" value="Dimension Table" style="swimlane;whiteSpace=wrap;html=1;" parent="1" vertex="1">
          <mxGeometry x="-530" y="30" width="100" height="110" as="geometry" />
        </mxCell>
        <mxCell id="rUiSAQAoIF4Tqrk9Y4Ku-15" value="Dealer_ID&lt;div&gt;Location_ID&lt;/div&gt;&lt;div&gt;Country_ID&lt;/div&gt;&lt;div&gt;Dealer_NM&lt;/div&gt;" style="text;html=1;align=center;verticalAlign=middle;resizable=0;points=[];autosize=1;strokeColor=none;fillColor=none;" parent="rUiSAQAoIF4Tqrk9Y4Ku-14" vertex="1">
          <mxGeometry x="5" y="35" width="90" height="70" as="geometry" />
        </mxCell>
        <mxCell id="rUiSAQAoIF4Tqrk9Y4Ku-19" value="Dimension Table" style="swimlane;whiteSpace=wrap;html=1;" parent="1" vertex="1">
          <mxGeometry x="-770" y="60" width="100" height="80" as="geometry" />
        </mxCell>
        <mxCell id="rUiSAQAoIF4Tqrk9Y4Ku-21" value="Location&lt;div&gt;Location_ID&lt;/div&gt;&lt;div&gt;Region&lt;/div&gt;" style="text;html=1;align=center;verticalAlign=middle;resizable=0;points=[];autosize=1;strokeColor=none;fillColor=none;" parent="1" vertex="1">
          <mxGeometry x="-775" y="73" width="90" height="60" as="geometry" />
        </mxCell>
        <mxCell id="rUiSAQAoIF4Tqrk9Y4Ku-22" value="Dimension Table" style="swimlane;whiteSpace=wrap;html=1;" parent="1" vertex="1">
          <mxGeometry x="-770" y="190" width="100" height="100" as="geometry" />
        </mxCell>
        <mxCell id="rUiSAQAoIF4Tqrk9Y4Ku-23" value="Country&lt;div&gt;Country_ID&lt;/div&gt;&lt;div&gt;Country_Name&lt;/div&gt;" style="text;html=1;align=center;verticalAlign=middle;resizable=0;points=[];autosize=1;strokeColor=none;fillColor=none;" parent="1" vertex="1">
          <mxGeometry x="-780" y="213" width="100" height="60" as="geometry" />
        </mxCell>
        <mxCell id="rUiSAQAoIF4Tqrk9Y4Ku-26" value="Dimension Table" style="swimlane;whiteSpace=wrap;html=1;" parent="1" vertex="1">
          <mxGeometry x="-600" y="350" width="90" height="130" as="geometry" />
        </mxCell>
        <mxCell id="rUiSAQAoIF4Tqrk9Y4Ku-27" value="Branch&lt;div&gt;Branch_ID&lt;/div&gt;&lt;div&gt;Name&lt;/div&gt;&lt;div&gt;Address&lt;/div&gt;&lt;div&gt;Country&lt;/div&gt;" style="text;html=1;align=center;verticalAlign=middle;resizable=0;points=[];autosize=1;strokeColor=none;fillColor=none;" parent="1" vertex="1">
          <mxGeometry x="-600" y="378" width="80" height="90" as="geometry" />
        </mxCell>
        <mxCell id="rUiSAQAoIF4Tqrk9Y4Ku-29" value="Dimesion Table" style="swimlane;whiteSpace=wrap;html=1;" parent="1" vertex="1">
          <mxGeometry x="-140" y="310" width="110" height="110" as="geometry" />
        </mxCell>
        <mxCell id="rUiSAQAoIF4Tqrk9Y4Ku-30" value="Product&lt;div&gt;Product_ID&lt;/div&gt;&lt;div&gt;Product_Name&lt;/div&gt;&lt;div&gt;Model_ID&lt;/div&gt;&lt;div&gt;Variant_ID&lt;/div&gt;" style="text;html=1;align=center;verticalAlign=middle;resizable=0;points=[];autosize=1;strokeColor=none;fillColor=none;" parent="1" vertex="1">
          <mxGeometry x="-130" y="328" width="100" height="90" as="geometry" />
        </mxCell>
      </root>
    </mxGraphModel>
  </diagram>
</mxfile>
